<svg width="73" height="73" viewBox="0 0 73 73" fill="none" xmlns="http://www.w3.org/2000/svg">
<g id="Button night">
<circle id="Background" cx="36.5" cy="36.5" r="36.5" fill="#102702"/>
<path id="Moon" d="M30.6987 64.3872C24.5506 63.3686 18.9391 60.5304 14.4433 56.1652C11.6269 53.4308 8.34 48.9562 8.32459 47.8358C8.32292 47.6703 9.1826 47.91 10.2363 48.3686C16.051 50.8993 25.0896 51.2169 31.1709 49.1044C39.568 46.1874 45.6627 40.2531 48.7617 31.9767C49.5915 29.7604 49.9127 27.8758 50.0888 24.1902C50.3466 18.7963 49.8383 15.3403 48.2047 11.3796L47.1767 8.88696L48.1372 9.38529C58.5159 14.7702 65.2487 25.9747 64.637 36.8438C63.6814 53.8243 47.2811 67.1343 30.6987 64.3872ZM23.5441 41.026C23.3899 40.5481 22.8721 40.0348 22.3935 39.8854C21.5829 39.6322 21.6146 39.5298 22.8569 38.388L24.1905 37.1623L25.5596 38.4207C26.3126 39.1127 26.6999 39.679 26.4202 39.679C26.1406 39.679 25.4421 40.1776 24.8681 40.787C23.8649 41.852 23.8135 41.8613 23.5441 41.026ZM35.9669 32.1002C35.5473 31.2345 34.6118 30.1947 33.888 29.7895C32.2333 28.8631 32.2394 28.6406 33.9383 27.9482C34.8628 27.5714 35.5519 26.8294 36.0509 25.6733L36.7916 23.9575L37.597 25.7149C38.1079 26.8296 38.8669 27.6616 39.6723 27.9898C41.2675 28.6399 41.273 29.0295 39.696 29.6722C38.945 29.9783 38.108 30.8743 37.5897 31.9271L36.7298 33.674L35.9669 32.1002ZM13.6338 28.2548C13.0959 26.6512 11.2073 24.7702 9.64536 24.2824C8.32692 23.8707 8.55555 23.4686 10.6874 22.4495C12.205 21.7241 12.7876 21.1149 13.4339 19.5774L14.2543 17.6259L15.3651 19.6453C16.1235 21.0241 17.0886 21.997 18.4072 22.7118L20.3385 23.7588L18.4072 24.6708C16.9696 25.3497 16.1795 26.1237 15.3163 27.6984L14.1568 29.8139L13.6338 28.2548ZM26.6404 13.734C26.4805 13.2381 25.926 12.7 25.4083 12.5384C24.4865 12.2505 24.4915 12.2269 25.6513 11.3957C26.3026 10.9289 26.8355 10.2649 26.8355 9.92027C26.8355 9.53315 27.3963 9.83716 28.3025 10.7155C29.1094 11.4975 29.5557 12.2056 29.2944 12.289C29.0331 12.3725 28.3945 12.9346 27.8753 13.5382C26.9511 14.6128 26.9252 14.6169 26.6404 13.734Z" fill="white"/>
</g>
</svg>
